<svg width="1305" height="268" viewBox="0 0 1305 268" fill="none" xmlns="http://www.w3.org/2000/svg">
    <g clip-path="url(#clip0_8_2217)">
        <rect width="1305" height="268" fill="#FFC123"/>
        <path fill-rule="evenodd" clip-rule="evenodd"
              d="M994.854 13.5087C998.62 11.9197 999.467 18.4564 996.579 19.5383C995.101 19.5134 993.326 16.4398 994.854 13.5087Z"
              fill="#41403C" fill-opacity="0.08"/>
        <path fill-rule="evenodd" clip-rule="evenodd"
              d="M1103.04 226.22C1101.43 233.586 1097.9 237.092 1094.01 240.505C1093.31 245.885 1091.18 253.85 1089.09 258.859C1081.98 257.695 1075.48 251.498 1073.94 244.776C1072.69 246.668 1071.78 248.653 1071.39 251.516C1069.91 251.492 1068.09 251.374 1066.79 250.656C1067 248.486 1068.32 247.725 1068.78 245.994C1068.12 244.33 1066.69 241.349 1065.21 241.324C1065.55 246.983 1062.56 253.977 1059.81 257.322C1059.83 255.844 1058.61 256.258 1057.48 256.326C1058.29 254.688 1057.34 254.063 1058.06 252.77C1054.86 246.716 1049.32 239.665 1042.07 236.239C1040.09 235.336 1037.92 235.125 1036.28 234.315C1028.02 229.132 1024.68 220.814 1019.4 214.202C1017.36 216.255 1015.74 219.533 1011.77 217.727C1012.15 210.776 1010.1 203.175 1006.69 199.291C1005.04 204.047 1002.68 210.095 997.858 207.317C1003.8 200.373 997.346 191.22 995.621 185.19C995.046 183.181 994.91 180.917 993.457 179.414C991.032 178.765 992.25 183.916 989.573 182.828C985.788 180.329 988.151 174.281 988.85 168.901C985.722 158.412 978.202 150.459 976.298 139.556C973.966 138.56 973.502 140.292 971.171 139.296C974.251 131.956 973.151 124.98 971.24 119.643C966.039 123.816 959.835 135.887 961.882 143.488C958.95 141.96 957.336 139.672 956.947 136.969C951.764 145.231 940.489 148.519 940.012 161.382C938.534 161.357 938.466 160.226 937.056 161.333C935.906 157.313 936.42 152.625 935.616 148.698C932.907 154.653 927.638 157.695 923.407 161.016C918.738 164.59 915.361 168.881 910.345 172.362C907.692 169.796 909.801 163.309 911.607 159.339C904.26 161.824 898.78 167.037 893.808 173.127C891.755 171.093 892.336 167.537 892.386 164.581C887.37 168.062 882.15 168.148 875.014 168.463C868.662 168.617 863.857 169.927 858.662 168.535C860.35 166.39 861.186 163.273 861.928 160.502C857.562 161.559 850.45 160.396 847.382 156.605C843.084 158.794 833.48 155.849 832.423 151.483C835.824 145.714 839.733 140.822 844.403 137.248C840.204 133.525 835.566 130.055 834.094 124.465C841.831 124.682 847.286 120.947 851.38 115.364C851.059 113.793 850.113 113.168 849.791 111.597C855.246 107.863 860.101 103.596 862.421 94.9387C859.211 94.4498 860.046 91.3331 856.051 91.0049C857.326 87.6347 860.789 88.5627 863.331 87.388C872.088 83.7959 878.057 75.3738 883.679 66.8588C880.723 66.809 876.221 65.6027 876.177 62.993C877.241 61.7934 878.973 62.2574 880.197 61.8432C880.822 60.897 879.369 59.3942 881.1 59.8581C894.44 68.2575 902.567 50.3925 916.031 51.4018C916.427 48.5386 912.778 48.3033 913.959 45.2794C917.979 44.1295 921.164 46.0964 924.813 46.3317C931.671 47.056 937.98 44.2923 944.745 45.3628C957.238 47.2255 960.948 54.1583 969.235 57.8634C974.9 51.9581 985.779 51.5325 990.819 46.5734C987.542 44.9528 984.771 44.2105 981.401 42.9362C963.256 35.8474 960.858 12.935 946.666 3.56471C941.588 0.348463 933.394 -3.70295 924.619 -4.19856C917.321 -4.66929 915.855 4.95921 909.546 7.72286C907.815 7.25888 906.937 7.76589 904.951 6.86282C903.937 5.10643 902.923 3.35005 902.002 1.24736C903.158 -0.298548 904.686 -3.22966 903.672 -4.98605C905.96 -6.59987 909.752 -9.66681 909.016 -12.4621C915.831 -14.3476 924.725 -15.6762 934.582 -12.2925C941.07 -10.1831 950.395 -6.19961 954.087 -3.35455C956.487 -1.22698 958.237 3.32469 960.265 6.83746C968.563 20.196 974.32 34.7292 998.266 38.1761C1003.75 27.3978 999.745 17.4163 1001.74 7.18796C1004.48 -5.81074 1012.32 -11.5055 1021.4 -13.5268C1022.88 -13.5019 1023.48 -12.97 1024.42 -12.3453C1026.32 -16.6616 1032.38 -19.8644 1034.19 -14.181C1035.98 -16.673 1038.26 -18.2869 1040.71 -19.1153C1042.54 -18.9976 1042.86 -17.4268 1044.68 -17.3091C1047.83 -17.952 1051.06 -18.9411 1053.79 -20.8084C1054.13 -20.7156 1054.48 -20.6228 1054.83 -20.53C1058.78 -7.59249 1068.54 1.7032 1070.4 15.562C1075.64 13.9979 1080.88 17.9995 1084.06 19.9664C1091.73 24.6176 1100.49 30.6789 1100.81 37.8154C1100.69 39.6397 1098.45 38.2975 1098.08 39.6827C1103.62 46.7332 1107.83 54.5441 1111.61 62.6086C1111.75 64.872 1109.76 63.9689 1109.74 65.4469C1117.69 78.7126 1115.45 98.1552 1123.93 110.821C1122.43 112.274 1123.45 114.031 1122.82 114.977C1117.25 114.97 1113.59 110.647 1110.43 107.202C1099.22 96.4034 1090.37 79.557 1072.64 73.6927C1053.96 67.2037 1029.42 63.2249 1013.12 54.7758C1014.91 61.9371 1017.03 70.6693 1017.34 77.8058C1024.8 79.0619 1032.7 74.4988 1041.2 76.0333C1051.08 77.939 1059.28 81.9904 1063.08 88.5769C1063.4 90.1477 1060.89 89.8444 1062.09 90.9082C1069.98 97.4765 1074.26 106.419 1081.37 113.148C1081.25 114.972 1079.61 114.162 1078.99 115.108C1084.96 121.905 1091.5 136.278 1099.83 142.593C1101.72 143.842 1105.53 144.863 1104.88 147.287C1103.86 151.096 1097.12 148.548 1094.74 150.508C1098.15 159.957 1098.04 171.435 1101.54 180.538C1102.9 182.388 1105.14 183.73 1104.65 186.939C1103.33 187.7 1100.66 186.611 1098.99 187.279C1104.22 196.846 1100.86 210.791 1105.65 220.612C1106.99 223.939 1109.57 225.374 1110.03 229.208C1108.64 228.837 1105.62 227.655 1103.04 226.22ZM1008.78 54.3548C1008.55 52.4377 1006.13 51.7881 1005.46 50.1245C1001.23 53.445 996.743 56.3263 991.499 57.8904C988.468 62.2746 984.516 64.5561 982.753 71.1358C988.609 79.7571 990.26 90.2207 984.699 105.433C992.238 96.6895 997.335 83.2087 1008.17 80.1734C1008.76 71.0519 1009.25 62.2767 1008.78 54.3548Z"
              fill="#41403C" fill-opacity="0.08"/>
        <path fill-rule="evenodd" clip-rule="evenodd"
              d="M1010.41 39.9488C1027.72 50.1543 1038.98 37.2121 1049.27 30.6889C1049.04 28.7718 1049.16 26.9475 1050.15 24.6162C1049.11 24.3378 1048.54 22.3279 1047.85 22.1423C1033.94 21.3865 1018.83 30.6982 1010.41 39.9488ZM1033.91 33.9959C1033.19 35.2883 1031.62 35.6097 1029.19 34.9601C1027.03 29.1839 1036.43 28.7334 1033.91 33.9959Z"
              fill="#FFC123"/>
        <path fill-rule="evenodd" clip-rule="evenodd"
              d="M914.625 -9.84521C913.469 -8.2993 911.966 -6.84619 910.716 -4.95398C912.355 -4.1437 913.648 -3.42621 914.755 -2.01612C918.268 -4.04415 921.805 -7.55017 926.493 -7.03642C932.22 -6.24428 937.575 -4.06695 941.638 -2.60709C961.007 4.0675 965.112 28.9218 980.783 38.317C984.914 40.9086 992.094 43.2036 997.178 40.8542C968.915 35.5083 964.711 16.5659 954.013 1.07988C942.034 -5.47028 928.046 -11.4455 914.625 -9.84521Z"
              fill="#FFC123"/>
        <path fill-rule="evenodd" clip-rule="evenodd"
              d="M1052.83 31.2725C1052.48 31.1797 1052.13 31.0869 1052.13 31.0869C1045.06 38.099 1037.57 43.8865 1027.96 46.5076C1041.35 51.951 1053.86 57.9013 1066.27 64.198C1073.6 63.1907 1082.69 65.2571 1090.52 65.1281C1086.44 59.5805 1080.88 54.0081 1072.13 52.0345C1070.49 51.2242 1070.86 49.839 1070.54 48.2682C1063.52 46.7586 1057.56 49.615 1050.66 46.2811C1049.05 43.9928 1051.45 40.5547 1053.05 38.7553C1052.57 36.3991 1052.43 34.1357 1052.83 31.2725Z"
              fill="#FFC123"/>
        <path fill-rule="evenodd" clip-rule="evenodd"
              d="M907.964 -1.60775C907.778 -0.915147 907.432 -1.00793 907.153 0.0309671C907.104 2.98696 911.513 4.53961 912.441 1.07661C910.802 0.266326 910.388 -0.958175 907.964 -1.60775Z"
              fill="#FFC123"/>
        <path fill-rule="evenodd" clip-rule="evenodd"
              d="M1014.22 46.5335C1028.53 54.0795 1045.82 60.1973 1063.99 65.8082C1049.24 58.5156 1033.13 49.3739 1014.22 46.5335Z"
              fill="#FFC123"/>
        <path fill-rule="evenodd" clip-rule="evenodd"
              d="M1072.48 67.3407C1078.6 70.8354 1088.32 71.9557 1096.03 73.6509C1095.14 64.5045 1081.14 69.6606 1072.48 67.3407Z"
              fill="#FFC123"/>
        <path fill-rule="evenodd" clip-rule="evenodd"
              d="M973.02 60.3582C974.194 62.9 975.808 65.1883 977.954 66.8768C981.666 53.0248 994.505 54.9802 1002.02 47.7147C996.596 44.4056 991.252 51.8817 985.383 54.3918C980.392 56.395 975.426 56.9201 973.02 60.3582Z"
              fill="#FFC123"/>
        <path fill-rule="evenodd" clip-rule="evenodd"
              d="M1090.16 76.1625C1092.75 77.5974 1096.21 78.5254 1099.67 79.4534C1099.59 74.234 1094.07 76.8369 1090.16 76.1625Z"
              fill="#FFC123"/>
        <path fill-rule="evenodd" clip-rule="evenodd"
              d="M1012.88 63.9929C1011.6 67.3631 1012.57 72.0755 1011.71 76.6702C1012.56 77.6412 1013.72 76.0952 1014.6 75.5882C1014.67 71.1542 1013.77 67.5736 1012.88 63.9929Z"
              fill="#FFC123"/>
        <path fill-rule="evenodd" clip-rule="evenodd"
              d="M1002.39 87.8994C1002.58 96.8601 1009.71 102.111 1010.79 110.565C1014.01 105.488 1012.88 99.9903 1013.05 95.21C1018.24 96.602 1018.81 104.178 1025.46 107.072C1023.39 100.95 1019.12 96.095 1017.93 89.4655C1023.14 94.9451 1025.28 102.199 1031.03 107.079C1032 106.226 1030.54 104.723 1029.78 103.406C1027.94 99.2003 1025.68 93.7704 1025.6 88.551C1022.39 88.0621 1015.18 87.2451 1015.33 83.9428C1018.65 82.6074 1021.4 84.8278 1024.26 85.2238C1033.64 86.2513 1038.58 81.6385 1047.17 82.8267C1052.21 83.4333 1054.93 87.1316 1061.86 88.9876C1058.4 82.4939 1051.73 81.0771 1045.4 79.753C1035.86 77.9401 1026.64 83.2637 1018.84 81.9148C1017.01 81.7971 1015.81 80.7333 1014.34 80.7085C1012.07 80.8443 1010.64 83.4291 1008.4 82.0869C1006.02 84.047 1004.33 86.1927 1002.39 87.8994ZM1007.2 96.2422C1007.04 95.4568 1005.66 95.0856 1005.06 94.5537C1005.24 93.8611 1005.43 93.1685 1005.61 92.4759C1006.05 92.2224 1007.09 92.5008 1008.13 92.7792C1008.73 93.3111 1008.43 95.828 1007.2 96.2422Z"
              fill="#FFC123"/>
        <path fill-rule="evenodd" clip-rule="evenodd"
              d="M924.25 53.9779C928.053 60.5644 943.105 65.34 950.799 62.9475C944.547 57.1895 933.693 56.1371 924.25 53.9779Z"
              fill="#FFC123"/>
        <path fill-rule="evenodd" clip-rule="evenodd"
              d="M1032.04 88.0547C1034.19 89.7432 1038.6 91.2959 1042.94 91.7168C1042.96 90.2388 1042.78 90.9314 1043.49 89.639C1045.76 89.5032 1048.78 90.6847 1051.21 91.3342C1052.52 90.5737 1053.68 89.0278 1056.27 90.4628C1050.29 83.6659 1038.83 87.6473 1032.04 88.0547Z"
              fill="#FFC123"/>
        <path fill-rule="evenodd" clip-rule="evenodd"
              d="M1059.52 93.5565C1062.91 98.9185 1065.07 104.695 1072.85 107.522C1068.58 102.667 1066.91 93.681 1059.52 93.5565Z"
              fill="#FFC123"/>
        <path fill-rule="evenodd" clip-rule="evenodd"
              d="M893.957 65.9037C895.064 67.3138 897.192 64.9146 899.338 66.6031C898.942 69.4663 903.908 68.9411 906.332 69.5907C910.334 64.3531 914.428 58.7693 920.458 57.0446C920.551 56.6983 919.859 56.5127 919.951 56.1664C908.362 52.3187 903.29 64.3215 893.957 65.9037Z"
              fill="#FFC123"/>
        <path fill-rule="evenodd" clip-rule="evenodd"
              d="M903.32 78.0607C913.246 82.5761 923.178 81.5258 928.911 76.7522C925.683 72.1757 919.913 68.7738 918.003 63.4368C923.383 64.1361 933.03 69.6904 938.046 66.2092C931.973 65.3243 925.857 61.8297 922.419 59.4237C918.399 60.5736 915.115 64.5187 912.269 68.2103C909.678 72.341 905.887 75.4079 903.32 78.0607ZM913.159 77.3567C913.37 75.1861 916.004 73.6651 918.614 73.622C918.911 76.6708 915.169 76.7818 913.159 77.3567Z"
              fill="#FFC123"/>
        <path fill-rule="evenodd" clip-rule="evenodd"
              d="M1028.02 89.2014C1026.98 88.923 1027.58 89.4549 1027.49 89.8012C1029.56 95.9237 1031.72 101.7 1034.67 107.315C1035.65 100.896 1032.38 93.7101 1028.02 89.2014Z"
              fill="#FFC123"/>
        <path fill-rule="evenodd" clip-rule="evenodd"
              d="M1047.39 95.8765C1055.6 104.016 1058.2 115.104 1062.99 124.925C1063.78 119.198 1060.72 109.842 1057.08 104.04C1055.31 100.967 1051.39 96.2046 1047.39 95.8765Z"
              fill="#FFC123"/>
        <path fill-rule="evenodd" clip-rule="evenodd"
              d="M1034.9 94.0136C1036.37 99.6042 1037.1 107.965 1039.52 114.18C1042.85 107.279 1038.82 98.7757 1034.9 94.0136Z"
              fill="#FFC123"/>
        <path fill-rule="evenodd" clip-rule="evenodd"
              d="M962.164 80.0907C959.666 83.8751 956.821 87.5667 953.029 90.6337C949.331 93.3543 943.047 94.64 941.495 99.0491C939.757 104.151 938.179 110.038 934.617 115.022C939.818 110.848 947.208 110.973 951.649 105.482C952.335 111.233 944.574 112.494 940.714 114.429C948.841 117.349 953.745 110.126 957.586 104.103C954.655 102.575 947.265 102.451 945.929 99.1237C953.276 96.6385 958.942 90.7332 962.164 80.0907Z"
              fill="#FFC123"/>
        <path fill-rule="evenodd" clip-rule="evenodd"
              d="M1065.28 108.093C1064.58 107.908 1064.49 108.254 1064.84 108.347C1069.3 122.162 1077.28 133.95 1090.87 142.789C1078.79 142.15 1074.72 131.037 1069.53 124.08C1068.69 127.196 1072.2 130.734 1074.67 133.993C1079.1 139.633 1086.23 144.884 1096.6 143.581C1092.68 138.819 1089.1 134.149 1085.11 128.255C1082.23 123.772 1079.33 115.2 1074.95 112.169C1071.67 110.549 1067.84 111.006 1065.28 108.093ZM1075.03 122.955C1077.44 129.17 1086.01 131.836 1087.99 138.305C1081.34 135.41 1075.62 129.052 1073.3 122.491C1073.99 122.676 1074.68 122.862 1075.03 122.955Z"
              fill="#FFC123"/>
        <path fill-rule="evenodd" clip-rule="evenodd"
              d="M999.82 90.5505C994.365 94.2852 992.713 104.606 992.243 111.903C991.847 114.767 991.104 117.537 991.08 119.015C991.766 124.766 998.321 128.007 1001.04 131.706C1010.41 117.514 996.362 104.842 999.82 90.5505ZM998.056 117.915C994.753 117.772 994.457 114.724 996.145 112.578C998.916 113.32 998.705 115.491 998.056 117.915Z"
              fill="#FFC123"/>
        <path fill-rule="evenodd" clip-rule="evenodd"
              d="M958.608 79.5078C952.022 83.3104 941.465 85.3068 931.471 79.6597C928.441 84.0439 925.503 88.0818 923.993 95.1006C927.117 90.3701 929.572 83.976 935.231 83.6364C934.489 86.4068 930.976 88.4349 929.448 91.366C933.214 89.777 936.381 87.6562 940.055 86.4136C936.931 91.1441 928.916 91.9658 925.422 98.0815C936.442 94.3536 951.273 91.6465 958.608 79.5078Z"
              fill="#FFC123"/>
        <path fill-rule="evenodd" clip-rule="evenodd"
              d="M890.259 68.625C889.22 68.3466 888.528 68.161 887.489 67.8826C881.631 80.0462 872.639 87.2868 862.125 91.8929C870.622 93.4274 875.131 89.0681 881.346 86.6507C883.548 79.8175 887.068 72.2238 890.259 68.625Z"
              fill="#FFC123"/>
        <path fill-rule="evenodd" clip-rule="evenodd"
              d="M902.356 73.3479C902.634 72.309 900.278 72.7911 899.678 72.2592C894.452 77.911 892.775 89.71 885.36 91.0636C888.069 85.1086 893.32 77.9789 896.908 71.5168C893.63 69.8963 891.131 73.6807 889.789 75.9192C886.919 81.0888 886.609 89.1714 882.564 91.7992C898.031 97.7994 908.013 93.7931 914.86 84.8639C907.377 85.0858 899.968 80.8737 897.965 75.8829C898.775 74.2442 900.439 73.5765 902.356 73.3479Z"
              fill="#FFC123"/>
        <path fill-rule="evenodd" clip-rule="evenodd"
              d="M925.324 83.2187C914.167 84.6832 909.027 95.5543 906.608 110.124C911.834 104.472 912.75 91.3557 918.991 87.4604C915.354 96.8784 911.246 113.594 904.659 117.396C914.863 120.873 920.757 116.884 928.519 115.624C932.335 111.079 934.791 104.685 937.939 98.4761C931.124 100.362 926.015 104.189 919.707 106.953C917.382 100.391 921.137 89.1488 925.324 83.2187ZM929.96 107.473C929.75 109.644 928.779 110.497 926.794 109.594C926.887 109.248 926.633 108.809 926.287 108.716C926.312 107.238 927.443 107.17 927.629 106.477C928.668 106.756 929.361 106.941 929.96 107.473ZM918.847 111.547C918.939 111.201 919.379 110.948 919.471 110.601C926.447 109.501 919.879 117.391 918.847 111.547Z"
              fill="#FFC123"/>
        <path fill-rule="evenodd" clip-rule="evenodd"
              d="M1033.53 139.301C1035.5 130.551 1035.72 122.814 1032.08 117.013C1027.41 115.022 1023.54 112.869 1020.54 110.21C1020.19 110.117 1019.85 110.024 1019.75 110.37C1022 121.366 1022.94 133.122 1033.53 139.301Z"
              fill="#FFC123"/>
        <path fill-rule="evenodd" clip-rule="evenodd"
              d="M975.001 102.836C972.045 102.786 967.308 105.228 962.713 104.368C961.068 109.124 959.237 114.572 958.63 119.606C961.407 114.782 963.585 109.427 967.883 107.238C964.735 113.447 955.971 122.605 958.963 130.83C962.044 123.49 966.392 118.345 971.593 114.171C972.96 110.455 973.474 105.767 975.001 102.836Z"
              fill="#FFC123"/>
        <path fill-rule="evenodd" clip-rule="evenodd"
              d="M987.816 106.27C980.79 110.326 978.581 122.725 976.837 133.392C985.569 131.278 982.793 115.317 987.816 106.27Z"
              fill="#FFC123"/>
        <path fill-rule="evenodd" clip-rule="evenodd"
              d="M1069.68 130.432C1068.71 131.286 1068.16 133.364 1066.42 132.9C1070.07 138.701 1074.15 144.248 1084.82 145.993C1078.61 142.845 1070.34 137.662 1069.68 130.432Z"
              fill="#FFC123"/>
        <path fill-rule="evenodd" clip-rule="evenodd"
              d="M1055.93 141.595C1049.53 139.139 1044.85 133.06 1044.63 125.577C1042.55 125.02 1040.47 124.464 1039.62 123.493C1038.3 124.253 1040.01 126.195 1039.2 127.834C1043.88 133.913 1046.76 143.963 1059.41 146.611C1061.85 136.129 1059.32 126.172 1046.27 126.387C1047.46 133.017 1052.79 136.672 1055.93 141.595Z"
              fill="#FFC123"/>
        <path fill-rule="evenodd" clip-rule="evenodd"
              d="M1013.57 120.963C1011.72 122.323 1011.14 125.879 1009.29 127.239C1012.5 133.294 1017.43 139.812 1025.4 141.947C1019.58 135.935 1014.55 129.763 1013.57 120.963Z"
              fill="#FFC123"/>
        <path fill-rule="evenodd" clip-rule="evenodd"
              d="M906.789 94.207C901.612 96.9028 896.343 99.9448 888.217 97.0251C883.64 100.253 880.331 105.676 877.622 111.631C888.333 115.986 894.555 108.003 902.409 106.395C903.708 101.547 905.075 97.8307 906.789 94.207Z"
              fill="#FFC123"/>
        <path fill-rule="evenodd" clip-rule="evenodd"
              d="M957.951 108.286C953.763 114.216 946.156 121.828 938.426 116.045C936.416 116.62 935.166 118.512 933.064 119.434C931.493 119.755 933.021 116.824 932.21 118.463C932.117 118.809 931.771 118.716 931.678 119.062C931.586 119.409 931.586 119.409 931.239 119.316C940.219 123.207 949.805 122.063 955.699 118.075C956.28 114.52 957.115 111.403 957.951 108.286Z"
              fill="#FFC123"/>
        <path fill-rule="evenodd" clip-rule="evenodd"
              d="M1064.66 139.478C1063.29 143.195 1063.98 148.946 1062.08 153.263C1059.95 155.662 1054.44 152.699 1051.41 151.518C1052.76 164.498 1064.74 171.048 1072.33 180.134C1078.96 173.375 1079.93 157.303 1078.58 149.888C1076.5 149.331 1074.51 148.428 1072.87 147.618C1075.36 154.965 1077.89 164.921 1072.33 174.568C1070.58 170.016 1072.83 165.793 1072.81 161.705C1072.96 152.837 1068.72 146.504 1064.66 139.478Z"
              fill="#FFC123"/>
        <path fill-rule="evenodd" clip-rule="evenodd"
              d="M879.886 90.7087C875.242 92.8046 871.29 95.0861 865.631 95.4257C865.228 103.855 859.749 109.067 855.425 112.734C857.639 115.554 862.537 113.897 864.226 111.752C868.567 112.173 870.627 108.642 874.461 108.184C876.892 103.268 879.923 98.884 883.621 96.1634C882.514 94.7533 880.09 94.1038 878.544 92.9472C879.354 91.3085 880.554 92.3723 879.886 90.7087ZM871.982 95.2717C875.099 96.1069 872.99 102.594 869.805 100.627C869.898 100.281 869.552 100.188 869.205 100.095C868.63 98.0852 869.465 94.9685 871.982 95.2717Z"
              fill="#FFC123"/>
        <path fill-rule="evenodd" clip-rule="evenodd"
              d="M1039.49 136.44C1037.43 139.971 1037.4 147.015 1033.98 148.697C1029.89 148.715 1026.91 150.143 1021.9 148.059C1023.65 152.61 1025.05 157.069 1027.68 161.114C1030.31 165.158 1034.88 167.496 1036.63 172.048C1020.79 167.433 1023.63 148.523 1011.24 140.748C1014.83 155.071 1018.5 169.047 1037.55 174.151C1044.01 162.519 1048.33 143.633 1039.49 136.44ZM1035.65 163.248C1034.17 163.223 1034.01 162.438 1033.41 161.906C1033.69 160.867 1034.47 160.706 1034.66 160.014C1035.35 160.199 1035.7 160.292 1036.39 160.478C1036.99 161.01 1036.53 162.741 1035.65 163.248Z"
              fill="#FFC123"/>
        <path fill-rule="evenodd" clip-rule="evenodd"
              d="M1085.94 151.486C1087.78 161.257 1090.05 170.774 1098.04 176.996C1096.17 168.703 1096.07 159.396 1093.42 151.264C1090.81 151.307 1088.46 151.789 1085.94 151.486Z"
              fill="#FFC123"/>
        <path fill-rule="evenodd" clip-rule="evenodd"
              d="M990.01 125.786C984.653 144.394 997.25 155.563 993.278 174.542C1000.51 168.315 1008.13 149.572 1005.54 138.484C1004.75 138.644 1004.38 140.03 1003 139.658C1000.5 137.877 999.236 135.682 996.305 134.154C996.038 144.846 1000.81 156.145 995.573 167.363C995.518 155.099 993.707 143.85 993.652 131.587C993.17 129.231 990.492 128.142 990.01 125.786Z"
              fill="#FFC123"/>
        <path fill-rule="evenodd" clip-rule="evenodd"
              d="M1030.39 139.942C1030.89 140.82 1031.93 141.098 1032.97 141.377C1033.69 140.084 1030.99 140.474 1030.39 139.942Z"
              fill="#FFC123"/>
        <path fill-rule="evenodd" clip-rule="evenodd"
              d="M955.278 122.418C950.472 123.728 946.174 125.917 944.411 132.497C947.138 130.629 948.92 128.137 952.315 127.934C948.474 133.957 940.131 138.773 939.079 149.626C944.559 144.414 950.038 139.201 955.172 133.895C955.846 129.993 954.511 126.666 955.278 122.418Z"
              fill="#FFC123"/>
        <path fill-rule="evenodd" clip-rule="evenodd"
              d="M985.383 131.967C984.227 133.512 982.724 134.966 981.475 136.858C981.932 140.692 983.614 144.112 984.857 147.785C985.278 143.444 983.899 137.507 985.383 131.967Z"
              fill="#FFC123"/>
        <path fill-rule="evenodd" clip-rule="evenodd"
              d="M1086.18 163.061C1082.36 173.172 1089.62 180.686 1100.2 182.778C1093.42 177.619 1088.04 171.354 1086.18 163.061Z"
              fill="#FFC123"/>
        <path fill-rule="evenodd" clip-rule="evenodd"
              d="M914.714 129.734C918.666 127.452 922.204 123.946 926.756 122.197C923.274 117.181 916.131 123.061 914.714 129.734Z"
              fill="#FFC123"/>
        <path fill-rule="evenodd" clip-rule="evenodd"
              d="M899.167 112.95C895.469 115.671 890.874 114.811 886.829 117.439C881.813 120.92 880.465 128.724 876.117 133.869C890.173 140.976 902.326 137.18 910.879 130.193C911.368 126.983 912.871 125.53 913.613 122.76C912.482 122.827 910.911 123.149 909.872 122.87C903.767 129.029 893.915 140.865 882.654 133.022C893.507 134.074 900.719 129.326 906.316 122.289C902.16 121.175 898.004 120.062 895.512 118.28C896.254 115.51 898.771 115.813 899.167 112.95ZM883.885 127.042C885.666 124.55 888.047 122.59 891.35 122.733C890.422 126.196 887.28 126.838 883.885 127.042ZM885.474 130.808C886.655 127.785 891.714 126.913 895.456 126.802C893.996 130.865 889.815 131.229 885.474 130.808Z"
              fill="#FFC123"/>
        <path fill-rule="evenodd" clip-rule="evenodd"
              d="M943.657 125.613C943.31 125.52 942.964 125.428 942.964 125.428C934.85 132.161 925.782 143.836 912.486 138.046C922.041 143.947 931.516 139.062 938.517 136.484C939.977 132.422 941.69 128.798 943.657 125.613Z"
              fill="#FFC123"/>
        <path fill-rule="evenodd" clip-rule="evenodd"
              d="M939.131 125.886C939.316 125.193 938.184 125.261 937.492 125.076C929.841 130.078 922.444 135.519 912.766 137.009C924.541 140.164 932.241 132.205 939.131 125.886Z"
              fill="#FFC123"/>
        <path fill-rule="evenodd" clip-rule="evenodd"
              d="M933.496 124.745C933.082 123.521 930.379 123.91 929.087 123.193C925.295 126.26 921.158 129.234 917.459 131.954C922.425 131.429 928.319 127.441 933.496 124.745Z"
              fill="#FFC123"/>
        <path fill-rule="evenodd" clip-rule="evenodd"
              d="M881.61 117.523C880.039 117.845 877.708 116.849 875.976 116.385C872.036 128.32 864.292 133.668 854.521 135.504C860.526 135.257 868.355 135.128 873.303 130.515C877.095 127.448 877.887 121.722 881.61 117.523Z"
              fill="#FFC123"/>
        <path fill-rule="evenodd" clip-rule="evenodd"
              d="M868.171 115.035C863.551 115.653 861.627 121.447 857.304 125.114C854.391 127.674 851.503 128.756 849.375 131.155C857.922 129.734 863.773 123.136 868.171 115.035Z"
              fill="#FFC123"/>
        <path fill-rule="evenodd" clip-rule="evenodd"
              d="M1010.11 156.038C1007.07 171.554 1017.29 179.118 1017.23 193.205C1017.48 193.644 1017.83 193.737 1018.01 193.044C1018.07 184.523 1016.02 176.922 1014.07 168.976C1013.2 163.917 1013.27 159.483 1010.11 156.038Z"
              fill="#FFC123"/>
        <path fill-rule="evenodd" clip-rule="evenodd"
              d="M1083.09 175.971C1076.66 186.124 1084.53 194.171 1087.17 202.303C1091.09 191.846 1086.71 183.25 1083.09 175.971Z"
              fill="#FFC123"/>
        <path fill-rule="evenodd" clip-rule="evenodd"
              d="M859.506 118.283C858.999 117.405 856.643 117.887 855.004 117.077C851.095 121.968 846.08 125.449 840.303 127.613C841.639 130.94 844.391 127.595 846.815 128.244C851.299 125.363 855.53 122.042 859.506 118.283Z"
              fill="#FFC123"/>
        <path fill-rule="evenodd" clip-rule="evenodd"
              d="M909.859 133.999C903.78 138.68 897.032 141.697 888.164 141.548C883.469 146.6 878.775 151.652 875.763 160.124C878.787 161.305 879.115 157.31 879.832 156.018C882.702 150.848 887.211 146.489 891.441 143.168C887.186 147.967 884.038 154.175 880.29 159.852C892.021 160.397 899.103 147.82 907.657 140.832C907.36 137.784 909.463 136.862 909.859 133.999Z"
              fill="#FFC123"/>
        <path fill-rule="evenodd" clip-rule="evenodd"
              d="M934.584 142.853C930.118 149.822 924.224 153.81 917.476 156.828C915.695 159.32 913.914 161.812 912.8 165.967C919.554 157.384 931.126 157.144 934.584 142.853Z"
              fill="#FFC123"/>
        <path fill-rule="evenodd" clip-rule="evenodd"
              d="M1078.76 185.195C1077.98 185.356 1077.7 186.395 1077.17 186.995C1077.64 194.917 1082.83 201.874 1086.75 206.636C1086.94 205.944 1087.22 204.905 1087.4 204.212C1082.88 198.918 1078.89 193.025 1078.76 185.195Z"
              fill="#FFC123"/>
        <path fill-rule="evenodd" clip-rule="evenodd"
              d="M1045.68 177.076C1044.17 178.529 1042.67 179.982 1041.01 180.65C1043.93 187.743 1048.61 193.823 1046.71 203.705C1050.53 193.594 1045.97 185.69 1045.68 177.076Z"
              fill="#FFC123"/>
        <path fill-rule="evenodd" clip-rule="evenodd"
              d="M1034.96 178.288C1035.55 184.386 1041.11 189.958 1043.53 196.173C1044.42 190.101 1038.67 185.221 1037.38 178.938C1036.69 178.752 1035.65 178.474 1034.96 178.288Z"
              fill="#FFC123"/>
        <path fill-rule="evenodd" clip-rule="evenodd"
              d="M999.79 175.175C993.685 181.334 1002.08 188.78 1003.02 194.971C1005.41 187.445 998.88 182.726 999.79 175.175Z"
              fill="#FFC123"/>
        <path fill-rule="evenodd" clip-rule="evenodd"
              d="M1079.05 220.165C1074.64 218.612 1073.26 212.675 1072.39 207.617C1069.59 208.352 1071.53 212.211 1071.85 213.782C1073.99 221.036 1076.98 229.261 1085.27 232.966C1088.28 224.495 1087.78 218.051 1085.96 212.367C1081.92 209.429 1078.86 205.638 1077.01 201.433C1071.25 207.684 1078.8 214.16 1079.05 220.165Z"
              fill="#FFC123"/>
        <path fill-rule="evenodd" clip-rule="evenodd"
              d="M1052.24 195.535C1051.13 199.691 1050.72 208.12 1047.44 212.065C1049.19 216.617 1052.05 222.578 1058.46 223.556C1059.37 216.005 1057.23 208.751 1058.03 203.025C1055.28 200.804 1053.76 198.17 1052.24 195.535Z"
              fill="#FFC123"/>
        <path fill-rule="evenodd" clip-rule="evenodd"
              d="M894.681 157.402C889.479 161.576 881.39 166.832 873.406 160.61C875.002 158.81 873.109 157.561 874.452 155.322C873.345 153.912 869.621 158.111 867.265 158.593C865.923 160.832 865.273 163.256 864.277 165.587C869.058 165.754 875.317 165.947 881.068 165.261C885.595 164.989 893.103 163.289 894.681 157.402Z"
              fill="#FFC123"/>
        <path fill-rule="evenodd" clip-rule="evenodd"
              d="M1032.53 198.426C1032.19 198.334 1032 199.026 1031.91 199.373C1033.13 204.524 1034.09 209.236 1035.75 214.134C1037.5 218.686 1040.13 222.731 1040.65 227.697C1034.74 227.597 1030.75 221.703 1028.66 217.059C1026.97 213.639 1025.82 209.619 1026.5 205.717C1025 207.17 1023.91 209.848 1022.4 211.301C1026.6 220.59 1033.86 228.104 1044.64 233.59C1046.18 225.094 1044.64 218.371 1040.12 213.077C1040.05 211.946 1040.33 210.907 1040.95 209.961C1038.23 206.262 1034.72 202.725 1032.53 198.426Z"
              fill="#FFC123"/>
        <path fill-rule="evenodd" clip-rule="evenodd"
              d="M1093.48 220.324C1091.33 224.201 1093.65 230.763 1094.36 235.036C1097 233.515 1098.46 229.452 1099.66 224.95C1097.43 223.608 1094.4 222.426 1093.48 220.324Z"
              fill="#FFC123"/>
        <path fill-rule="evenodd" clip-rule="evenodd"
              d="M1062.09 219.703C1062.09 219.703 1058 225.287 1060.52 225.59C1061.07 223.512 1061.63 221.435 1062.09 219.703Z"
              fill="#FFC123"/>
        <path fill-rule="evenodd" clip-rule="evenodd"
              d="M1068.68 221.472C1067.75 224.935 1066.01 230.036 1063.54 232.343C1066.1 235.256 1068.98 239.74 1071.38 241.867C1074.57 232.703 1072.16 226.487 1068.68 221.472Z"
              fill="#FFC123"/>
        <path fill-rule="evenodd" clip-rule="evenodd"
              d="M1091.15 234.54C1089.4 235.554 1088.56 238.671 1086.3 238.807C1083.78 238.503 1083.81 237.025 1081.29 236.722C1082.07 242.127 1084.26 246.425 1087.67 250.309C1089.22 245.9 1091.08 238.974 1091.15 234.54Z"
              fill="#FFC123"/>
        <path fill-rule="evenodd" clip-rule="evenodd"
              d="M1048.72 223.912C1046.87 225.273 1049.98 231.673 1046.97 234.58C1052.21 238.581 1056.92 243.183 1060.31 248.545C1065.31 235.41 1056.7 230.134 1048.72 223.912Z"
              fill="#FFC123"/>
        <path fill-rule="evenodd" clip-rule="evenodd"
              d="M1077.69 233.537C1077.34 233.444 1077 233.351 1076.65 233.259C1076.79 235.522 1076.39 238.385 1075.56 241.502C1078.88 245.732 1081.29 251.947 1086.84 253.432C1087.74 251.447 1084.69 251.744 1084.28 250.519C1079.82 246.357 1078.54 240.074 1077.69 233.537Z"
              fill="#FFC123"/>
        <path fill-rule="evenodd" clip-rule="evenodd"
              d="M1046.73 -9.70944C1042.68 -1.51591 1038.11 11.3651 1033.18 20.0656C1038.52 18.1553 1047.51 16.4803 1053.85 21.892C1053.48 23.2772 1054.4 25.3799 1053.31 28.0575C1055.49 28.268 1055.99 29.1462 1056.5 30.0244C1056.29 32.195 1055.45 35.3117 1057.44 36.2148C1056.95 39.4243 1055.45 40.8774 1054.45 43.2087C1060.8 43.0547 1073.53 41.2688 1077.77 47.6017C1097.48 59.9348 1103.58 80.1265 1114.94 97.2762C1115.07 89.8862 1111.48 81.1292 1112.08 76.0954C1112.22 72.7931 1108.81 68.9091 1107.66 64.8893C1108.19 64.2895 1108.06 62.0261 1108.75 62.2117C1106.47 52.6941 1098.14 46.3793 1095.43 37.1153C1095.29 34.8519 1097.28 35.755 1097.3 34.277C1092.55 27.0658 1084.73 21.6292 1072.96 18.4742C1070.6 18.9563 1068.82 21.4483 1066.46 21.9304C1064.87 18.1641 1065.46 14.6083 1064.91 11.1204C1064.26 7.97885 1063.81 4.14467 1062.38 1.16379C1059.87 -4.70517 1054.91 -9.74572 1053.46 -16.8143C1049.63 -16.3571 1045.93 -13.6364 1041.2 -16.7599C1038.56 -15.2388 1036.85 -11.6151 1033.96 -10.5332C1032.23 -10.9972 1032.35 -12.8215 1031.05 -13.539C1029.37 -11.3933 1028.18 -8.36936 1025.73 -7.54093C1023.56 -7.75141 1023.06 -8.6296 1021.76 -9.34708C1016.43 -7.43673 1011.41 -3.95559 1008.89 1.30682C1003.47 13.2169 1008.56 26.0865 1004.55 36.8897C1009.86 36.4573 1011.53 30.2239 1015.74 28.3815C1016.78 28.6599 1015.37 29.7667 1014.93 30.0202C1014.84 30.3665 1015.18 30.4593 1015.27 30.113C1019.41 27.1389 1022.95 23.6328 1027.75 22.3223C1035.71 14.8032 1037.92 -3.16136 1046.73 -9.70944ZM1048.1 7.35882C1047.71 4.65633 1049.67 1.47171 1052.03 0.989585C1052.42 3.69208 1049.85 6.34481 1048.1 7.35882ZM1022.59 13.8867C1021.28 9.08148 1021.4 1.69149 1022.89 -3.84931C1026.4 -0.311651 1024.95 7.83884 1022.59 13.8867Z"
              fill="#FFC123"/>
        <path fill-rule="evenodd" clip-rule="evenodd"
              d="M1093.83 80.4877C1099.43 88.6698 1105.73 97.0375 1113.09 104.206C1109.98 97.8048 1103.59 89.7834 1099.53 82.7578C1097.99 81.6012 1095.91 81.0444 1093.83 80.4877Z"
              fill="#FFC123"/>
        <path fill-rule="evenodd" clip-rule="evenodd"
              d="M969.915 69.1825C976.049 76.7648 968.107 93.9372 960.574 97.1151C966.95 95.4831 971.812 85.6509 973.996 74.73C976.581 76.165 975.214 79.8815 974.632 83.4373C974.515 85.2616 976.389 82.4233 977.842 83.9261C979.388 85.0827 978.831 87.1605 977.328 88.6136C975.757 88.9351 974.558 87.8713 973.265 87.1538C970.995 92.8553 968.057 96.8932 964.173 100.306C970.5 101.63 974.155 96.3002 979.004 97.5993C977.012 102.262 975.224 110.32 973.715 117.338C980.586 106.931 987.885 86.6172 981.522 77.1178C977.323 73.3946 971.807 70.4318 969.018 65.6018C967.633 65.2306 968.022 67.9331 966.383 67.1228C965.623 65.8055 965.648 64.3275 966.551 62.3425C960.831 55.9847 950.583 49.8985 939.359 50.2313C946.1 52.7798 951.962 55.8354 956.507 59.6514C950.366 57.6348 939.266 50.5776 931.919 53.0629C939.699 55.8898 948.449 57.8634 952.809 62.372C955.604 61.6364 959.785 61.272 962.97 63.2388C951.053 63.386 942.845 70.466 931.689 71.9305C945.424 77.4667 953.081 66.8988 963.731 64.5561C955.523 71.6361 947.502 78.0235 934.317 75.9752C946.963 84.1889 959.697 76.8373 965.505 67.6298C965.92 68.8543 966.637 67.5619 967.929 68.2794C965.981 75.5517 964.947 90.4924 958.336 95.7729C965.936 93.7267 972.629 78.4465 969.915 69.1825Z"
              fill="#FFC123"/>
        <path fill-rule="evenodd" clip-rule="evenodd"
              d="M1042.96 95.8055C1041.55 96.9123 1045.75 100.636 1045.44 103.152C1046.67 102.738 1045.31 100.889 1046.53 100.475C1048.95 106.69 1051.46 112.559 1055.73 117.414C1055.2 112.448 1052.25 106.833 1048.77 101.817C1047.06 99.875 1045.38 96.4551 1042.96 95.8055Z"
              fill="#FFC123"/>
        <path fill-rule="evenodd" clip-rule="evenodd"
              d="M1046.25 107.082C1045.5 109.852 1047.29 122.579 1039.88 118.367C1042.58 123.544 1052.07 122.747 1058.12 125.11C1053.34 119.377 1048.48 113.99 1046.25 107.082Z"
              fill="#FFC123"/>
        <path fill-rule="evenodd" clip-rule="evenodd"
              d="M1002.56 98.3425C1003.15 104.44 1007.56 111.558 1006.9 119.548C1011.8 112.326 1004.63 104.465 1002.56 98.3425Z"
              fill="#FFC123"/>
        <path fill-rule="evenodd" clip-rule="evenodd"
              d="M1017.63 107.204C1011.59 120.06 1018.14 128.867 1024.02 136.01C1020.93 128.132 1017.8 117.643 1017.63 107.204Z"
              fill="#FFC123"/>
        <path fill-rule="evenodd" clip-rule="evenodd"
              d="M874.337 115.574C873.298 115.296 872.605 115.11 871.566 114.832C868.022 123.904 861.942 128.584 855.356 132.387C862.932 131.819 870.007 124.807 874.337 115.574Z"
              fill="#FFC123"/>
        <path fill-rule="evenodd" clip-rule="evenodd"
              d="M1016.73 165.979C1017.97 175.218 1023.86 186.449 1017.98 200.091C1016.88 198.681 1018.22 196.442 1017.55 194.779C1014.24 184.983 1009.7 175.601 1007.7 165.045C1003.86 171.067 1006.25 178.761 1007.72 184.351C1009.93 192.737 1016.76 200.505 1016.52 209.719C1024.88 203.425 1027.72 184.514 1025.89 174.743C1021.66 172.498 1018.76 169.492 1016.73 165.979Z"
              fill="#FFC123"/>
        <path fill-rule="evenodd" clip-rule="evenodd"
              d="M1071.95 187.082C1071.9 190.038 1073.44 196.761 1070.15 200.706C1068.59 195.461 1071.95 187.082 1066.53 183.773C1066.77 189.778 1068.34 195.022 1067.36 201.441C1063 196.933 1064.44 188.782 1063.5 182.592C1061.86 181.782 1060.57 181.064 1058.93 180.254C1058.99 186.951 1062.66 191.274 1063.25 197.372C1057.76 192.931 1056.31 185.862 1056.09 178.38C1053 176.067 1050.35 173.5 1049.01 170.173C1051.93 182.832 1053.04 199.461 1070.52 204.886C1073.92 199.117 1074.14 191.38 1071.95 187.082Z"
              fill="#FFC123"/>
        <path fill-rule="evenodd" clip-rule="evenodd"
              d="M1094.21 187.115C1098.75 196.497 1096.31 212.544 1102.32 221.951C1103.13 220.312 1101.52 218.024 1101.22 214.975C1099.99 205.736 1101.06 193.405 1095.62 186.008C1094.24 185.637 1092.85 185.266 1091.47 184.895C1093.51 192.495 1095.65 199.749 1091.21 210.806C1092.79 214.572 1095.61 217.924 1098.95 220.677C1094.39 212.773 1096.12 198.018 1094.21 187.115Z"
              fill="#FFC123"/>
        <path fill-rule="evenodd" clip-rule="evenodd"
              d="M929.686 144.512C927.862 144.394 926.891 145.247 925.066 145.13C919.19 153.206 909.097 153.47 902.208 159.79C906.067 157.855 912.629 155.53 916.513 152.117C922.425 152.216 926.309 148.803 929.686 144.512Z"
              fill="#FFC123"/>
        <path fill-rule="evenodd" clip-rule="evenodd"
              d="M913.426 144.239C912.573 143.268 910.056 142.965 909.734 141.394C905.411 145.061 899.974 152.883 898.675 157.732C902.609 151.362 907.464 147.096 913.426 144.239Z"
              fill="#FFC123"/>
        <path fill-rule="evenodd" clip-rule="evenodd"
              d="M921.231 145.586C911.534 142.988 908.268 151.02 902.628 155.448C908.15 152.845 916.283 150.199 921.231 145.586Z"
              fill="#FFC123"/>
        <path fill-rule="evenodd" clip-rule="evenodd"
              d="M1030.46 177.082C1027.97 190.519 1039.49 198.801 1044.62 208.715C1043.51 197.651 1034.09 188.448 1030.46 177.082Z"
              fill="#FFC123"/>
        <path fill-rule="evenodd" clip-rule="evenodd"
              d="M879.319 139.927C875.59 149.691 865.608 153.697 856.943 156.943C860.499 157.525 866.251 156.839 868.31 153.308C875.633 152.301 879.913 146.024 884.953 141.065C879.827 140.805 877.705 137.639 874.403 137.496C869.369 136.889 865.274 142.473 861.805 147.111C858.867 151.149 855.168 153.87 852.002 155.99C862.237 152.423 871.459 147.1 879.319 139.927Z"
              fill="#FFC123"/>
        <path fill-rule="evenodd" clip-rule="evenodd"
              d="M863.247 138.957C859.598 138.722 854.514 141.071 848.813 138.801C844.582 142.121 839.634 146.734 837.711 152.529C851.631 157.372 855.918 145.53 863.247 138.957Z"
              fill="#FFC123"/>
        <path fill-rule="evenodd" clip-rule="evenodd"
              d="M1029.07 197.491C1027.66 198.598 1027.87 201.993 1027.05 203.632C1029.35 211.671 1031.65 219.711 1037.91 225.469C1034.04 217.751 1029.68 207.676 1029.07 197.491Z"
              fill="#FFC123"/>
    </g>
    <defs>
        <clipPath id="clip0_8_2217">
            <rect width="1305" height="268" fill="white"/>
        </clipPath>
    </defs>
</svg>
